<svg width="338" height="243" viewBox="0 0 338 243" fill="none" xmlns="http://www.w3.org/2000/svg">
<g clip-path="url(#clip0_1229_1662)">
<g filter="url(#filter0_d_1229_1662)">
<path d="M19 37.0407C19 34.2568 21.2568 32 24.0407 32H313.1C315.883 32 318.14 34.2568 318.14 37.0407V206.959C318.14 209.742 315.883 211.999 313.1 211.999H24.0407C21.2568 211.999 19 209.742 19 206.959V37.0407Z" fill="white"/>
<path d="M24.0404 32.9407H313.1C315.363 32.9407 317.199 34.7763 317.199 37.0407V206.959C317.199 209.223 315.363 211.058 313.1 211.058H24.0404C21.776 211.058 19.9404 209.223 19.9404 206.959V37.0407C19.9404 34.7763 21.776 32.9407 24.0404 32.9407Z" stroke="white" stroke-width="1.58236"/>
</g>
<g filter="url(#filter1_d_1229_1662)">
<path d="M286.684 94.8486H207.719V200.468H286.684V94.8486Z" fill="white"/>
<path d="M215.595 112.537H279.511" stroke="#E9ECEF" stroke-width="1.69579" stroke-linecap="round"/>
<path d="M215.595 141.357H279.511" stroke="#E9ECEF" stroke-width="1.69579" stroke-linecap="round"/>
<path d="M215.595 170.177H279.511" stroke="#E9ECEF" stroke-width="1.69579" stroke-linecap="round"/>
<path d="M215.595 194.194H279.511" stroke="#E9ECEF" stroke-width="1.69579" stroke-linecap="round"/>
<path d="M215.595 126.947H279.511" stroke="#E9ECEF" stroke-width="1.69579" stroke-linecap="round"/>
<path d="M215.595 155.766H279.511" stroke="#E9ECEF" stroke-width="1.69579" stroke-linecap="round"/>
<path d="M215.595 102.931H279.511" stroke="#E9ECEF" stroke-width="1.69579" stroke-linecap="round"/>
<path d="M215.595 131.75H279.511" stroke="#E9ECEF" stroke-width="1.69579" stroke-linecap="round"/>
<path d="M215.595 160.57H279.511" stroke="#E9ECEF" stroke-width="1.69579" stroke-linecap="round"/>
<path d="M215.595 184.587H279.511" stroke="#E9ECEF" stroke-width="1.69579" stroke-linecap="round"/>
<path d="M215.595 117.34H279.511" stroke="#E9ECEF" stroke-width="1.69579" stroke-linecap="round"/>
<path d="M215.595 146.161H279.511" stroke="#E9ECEF" stroke-width="1.69579" stroke-linecap="round"/>
<path d="M215.595 174.98H279.511" stroke="#E9ECEF" stroke-width="1.69579" stroke-linecap="round"/>
<path d="M215.595 107.734H279.511" stroke="#E9ECEF" stroke-width="1.69579" stroke-linecap="round"/>
<path d="M215.595 136.554H279.511" stroke="#E9ECEF" stroke-width="1.69579" stroke-linecap="round"/>
<path d="M215.595 165.373H279.511" stroke="#E9ECEF" stroke-width="1.69579" stroke-linecap="round"/>
<path d="M215.595 189.391H279.511" stroke="#E9ECEF" stroke-width="1.69579" stroke-linecap="round"/>
<path d="M215.595 122.144H279.511" stroke="#E9ECEF" stroke-width="1.69579" stroke-linecap="round"/>
<path d="M215.595 150.964H279.511" stroke="#E9ECEF" stroke-width="1.69579" stroke-linecap="round"/>
<path d="M215.595 179.784H279.511" stroke="#E9ECEF" stroke-width="1.69579" stroke-linecap="round"/>
</g>
<path d="M54.4203 73.1115H52.9494L53.8174 69.1133C53.93 68.6247 54.0521 68.1632 54.184 67.7291C54.1551 67.7549 54.0553 67.8304 53.885 67.9559C53.7178 68.0813 53.2965 68.3545 52.6213 68.7758L51.98 67.7389L54.7096 66.0604H55.9106L54.4203 73.1115ZM60.9457 73.1115H56.3061L56.5134 72.0842L58.814 70.0393C59.3926 69.5282 59.7914 69.1198 60.0101 68.8143C60.2319 68.5057 60.3427 68.2163 60.3427 67.9462C60.3427 67.7051 60.2769 67.5218 60.145 67.3965C60.0133 67.2678 59.8364 67.2035 59.6145 67.2035C59.4024 67.2035 59.1837 67.2582 58.9587 67.3675C58.7368 67.4736 58.4619 67.6633 58.1339 67.9366L57.4298 66.9575C57.8542 66.5975 58.2593 66.3418 58.6451 66.1907C59.031 66.0364 59.4329 65.9592 59.8509 65.9592C60.4618 65.9592 60.9457 66.1168 61.3026 66.4319C61.6594 66.7469 61.8379 67.1633 61.8379 67.681C61.8379 68.025 61.772 68.3481 61.6402 68.6504C61.5083 68.9526 61.3106 69.2548 61.047 69.5571C60.7865 69.8593 60.3589 70.2532 59.7641 70.7387L58.4667 71.8093V71.8576H61.2061L60.9457 73.1115ZM64.9872 68.6649C65.5757 68.6649 66.0402 68.8304 66.3811 69.1616C66.7218 69.4927 66.8923 69.9542 66.8923 70.5457C66.8923 71.0826 66.7765 71.5522 66.545 71.954C66.3168 72.3559 65.9824 72.6662 65.5419 72.8849C65.1014 73.1003 64.5709 73.2079 63.9503 73.2079C63.5741 73.2079 63.2221 73.171 62.8942 73.097C62.5693 73.0232 62.309 72.9298 62.1128 72.8174V71.5199C62.6723 71.8382 63.2381 71.9974 63.8105 71.9974C64.3056 71.9974 64.6931 71.8833 64.9727 71.655C65.2525 71.4267 65.3923 71.1149 65.3923 70.7194C65.3923 70.4172 65.2991 70.1904 65.1127 70.0393C64.9293 69.8882 64.6625 69.8127 64.312 69.8127C63.9841 69.8127 63.6417 69.8657 63.2847 69.9718L62.7832 69.5956L63.7815 66.0604H67.4229L67.1576 67.3241H64.7991L64.3747 68.7372C64.6063 68.689 64.8104 68.6649 64.9872 68.6649ZM74.8404 68.2019C74.6925 68.6713 74.5076 69.152 74.2857 69.6439L72.7232 73.1115H71.093L70.876 66.0604H72.2602L72.2891 69.9091C72.2891 70.0763 72.2827 70.3544 72.2698 70.7435C72.257 71.1326 72.2408 71.4122 72.2216 71.5827H72.2504C72.3212 71.3769 72.4289 71.0875 72.5736 70.7145C72.7183 70.3383 72.8147 70.1036 72.863 70.0104L74.6427 66.0604H75.9448L76.0461 70.2708C76.0461 70.7402 76.0316 71.1775 76.0027 71.5827H76.0316C76.1699 71.1679 76.3805 70.6068 76.6634 69.8995L78.255 66.0604H79.7453L76.6248 73.1115H74.9562L74.85 69.6342L74.8404 68.9639C74.8404 68.6809 74.8468 68.427 74.8596 68.2019H74.8404ZM82.7065 69.7548C82.7065 69.1214 82.4766 68.8047 82.0168 68.8047C81.7757 68.8047 81.5587 68.9028 81.3657 69.0988C81.1761 69.295 81.0201 69.5828 80.898 69.9622C80.779 70.3416 80.7195 70.7323 80.7195 71.1341C80.7195 71.729 80.9606 72.0263 81.4429 72.0263C81.684 72.0263 81.9011 71.9284 82.094 71.7322C82.2869 71.5328 82.4364 71.2579 82.5426 70.9075C82.6518 70.5538 82.7065 70.1695 82.7065 69.7548ZM84.1679 69.7548C84.1679 70.4332 84.0538 71.0345 83.8255 71.5586C83.6004 72.0827 83.274 72.4893 82.8463 72.7787C82.4188 73.0649 81.9107 73.2079 81.3223 73.2079C80.6954 73.2079 80.1937 73.0198 79.8176 72.6438C79.4447 72.2644 79.2581 71.7611 79.2581 71.1341C79.2581 70.4493 79.3723 69.84 79.6006 69.3063C79.8321 68.7694 80.1649 68.3545 80.5989 68.0619C81.0329 67.7661 81.541 67.6182 82.123 67.6182C82.7531 67.6182 83.2516 67.808 83.618 68.1874C83.9846 68.5668 84.1679 69.0892 84.1679 69.7548ZM88.6628 67.6182C88.8524 67.6182 89.0068 67.6359 89.1258 67.6714L88.8075 69.0699C88.6628 69.0185 88.5021 68.9928 88.3251 68.9928C87.9522 68.9928 87.6242 69.1407 87.3413 69.4365C87.0616 69.7291 86.8622 70.1502 86.7432 70.7L86.2321 73.1115H84.7803L85.9234 67.7195H87.0326L86.9313 68.7179H86.9603C87.4329 67.9848 88.0004 67.6182 88.6628 67.6182ZM90.7174 73.2079C90.2447 73.2079 89.8718 73.036 89.5984 72.6919C89.3283 72.3479 89.1933 71.8656 89.1933 71.2451C89.1933 70.6149 89.3075 70.0136 89.5357 69.4413C89.7672 68.8658 90.071 68.4189 90.4472 68.1006C90.8234 67.7791 91.2382 67.6182 91.6916 67.6182C91.9552 67.6182 92.1818 67.6778 92.3716 67.7967C92.5645 67.9157 92.7461 68.1198 92.9166 68.4092H92.9551L92.9648 68.2742C92.9841 67.9204 93.0243 67.607 93.0853 67.3337L93.4519 65.6072H94.9036L93.3121 73.1115H92.2076L92.2751 72.4122H92.2558C92.0275 72.6919 91.788 72.8945 91.5373 73.0198C91.2896 73.1453 91.0164 73.2079 90.7174 73.2079ZM91.325 72.0361C91.5373 72.0361 91.743 71.9267 91.9424 71.708C92.145 71.4862 92.3072 71.192 92.4295 70.8255C92.5516 70.4589 92.6127 70.0651 92.6127 69.6439C92.6127 69.3867 92.5516 69.1809 92.4295 69.0265C92.3105 68.8722 92.1465 68.7951 91.9375 68.7951C91.7188 68.7951 91.5099 68.9107 91.3105 69.1422C91.1144 69.3738 90.9568 69.6793 90.8379 70.0587C90.7221 70.4381 90.6643 70.8142 90.6643 71.1872C90.6643 71.7531 90.8845 72.0361 91.325 72.0361ZM98.6316 71.3319C98.6316 71.9363 98.4307 72.401 98.0288 72.7257C97.6302 73.0472 97.0738 73.2079 96.3601 73.2079C96.016 73.2079 95.7154 73.1839 95.4583 73.1356C95.2042 73.0874 94.9663 73.007 94.7444 72.8945V71.6984C95.2493 71.9878 95.7621 72.1325 96.2829 72.1325C96.5401 72.1325 96.7508 72.081 96.9148 71.9782C97.0787 71.872 97.1606 71.729 97.1606 71.549C97.1606 71.4107 97.1012 71.2869 96.9823 71.1775C96.8633 71.0683 96.6527 70.93 96.3505 70.7628C95.9614 70.5442 95.6898 70.3272 95.5354 70.1117C95.3811 69.8931 95.3039 69.6358 95.3039 69.3401C95.3039 68.7934 95.4807 68.3706 95.8345 68.0716C96.1913 67.7693 96.6993 67.6182 97.3585 67.6182C98.0047 67.6182 98.5882 67.771 99.1091 68.0764L98.6316 69.1133C98.1815 68.8433 97.7668 68.7083 97.3874 68.7083C97.2042 68.7083 97.0562 68.75 96.9437 68.8336C96.8312 68.914 96.7748 69.0233 96.7748 69.1616C96.7748 69.2869 96.8263 69.3979 96.9291 69.4944C97.0321 69.5876 97.225 69.7065 97.5079 69.8512C97.9034 70.0538 98.1896 70.274 98.3664 70.5119C98.5433 70.75 98.6316 71.0232 98.6316 71.3319Z" fill="#2971FE"/>
<path d="M53.4565 52.6614H51.9883V45.6238H56.0222V46.8465H53.4565V48.6612H55.8441V49.8791H53.4565V52.6614ZM58.8912 48.7479H59.3725C59.8443 48.7479 60.1924 48.6693 60.4172 48.512C60.6418 48.3548 60.7541 48.1076 60.7541 47.7707C60.7541 47.4369 60.6385 47.1995 60.4075 47.0582C60.1796 46.9171 59.825 46.8465 59.3436 46.8465H58.8912V48.7479ZM58.8912 49.961V52.6614H57.3989V45.6238H59.4496C60.4059 45.6238 61.1135 45.7987 61.5724 46.1485C62.0313 46.4951 62.2608 47.023 62.2608 47.7322C62.2608 48.1461 62.1469 48.5152 61.9189 48.8393C61.6911 49.1602 61.3686 49.4121 60.9515 49.5951C62.0105 51.1772 62.7005 52.1993 63.0214 52.6614H61.3654L59.6855 49.961H58.8912ZM67.9601 52.6614H63.907V45.6238H67.9601V46.8465H65.3993V48.3917H67.782V49.6144H65.3993V51.4291H67.9601V52.6614ZM73.4862 52.6614H69.4331V45.6238H73.4862V46.8465H70.9254V48.3917H73.3081V49.6144H70.9254V51.4291H73.4862V52.6614Z" fill="#252525"/>
<path d="M175.727 65.7521L174.757 70.3145C174.574 71.1697 174.224 71.8144 173.706 72.2485C173.188 72.6825 172.514 72.8996 171.686 72.8996C171.003 72.8996 170.467 72.7179 170.075 72.3546C169.686 71.988 169.491 71.4929 169.491 70.8692C169.491 70.6377 169.514 70.4158 169.563 70.2036L170.508 65.7521H171.979L171.044 70.1843C170.989 70.4222 170.961 70.6232 170.961 70.7871C170.961 71.3595 171.266 71.6456 171.873 71.6456C172.268 71.6456 172.582 71.5235 172.814 71.2791C173.045 71.0315 173.212 70.6634 173.316 70.1747L174.251 65.7521H175.727ZM180.352 72.8032H178.9L179.561 69.6538C179.612 69.4352 179.637 69.2438 179.637 69.0799C179.637 68.6843 179.464 68.4866 179.117 68.4866C178.822 68.4866 178.553 68.6699 178.312 69.0365C178.07 69.4029 177.881 69.9142 177.742 70.5701L177.27 72.8032H175.818L176.961 67.4112H178.07L177.969 68.4094H177.998C178.467 67.6764 179.038 67.3099 179.71 67.3099C180.155 67.3099 180.497 67.4449 180.737 67.7149C180.982 67.9819 181.105 68.3645 181.105 68.8628C181.105 69.0975 181.068 69.3869 180.993 69.731L180.352 72.8032ZM183.241 72.8032H181.789L183.38 65.2987H184.832L183.241 72.8032ZM186.096 66.1475C186.096 65.8678 186.171 65.6572 186.323 65.5157C186.476 65.371 186.694 65.2987 186.973 65.2987C187.209 65.2987 187.387 65.3485 187.508 65.4482C187.631 65.5479 187.693 65.691 187.693 65.8775C187.693 66.1347 187.621 66.3437 187.48 66.5044C187.338 66.662 187.12 66.7407 186.824 66.7407C186.338 66.7407 186.096 66.543 186.096 66.1475ZM186.173 72.8032H184.721L185.864 67.4112H187.316L186.173 72.8032ZM191.546 67.3099C192.25 67.3099 192.671 67.6764 192.809 68.4094H192.839C193.057 68.0558 193.314 67.7841 193.61 67.5944C193.909 67.4047 194.227 67.3099 194.565 67.3099C195.003 67.3099 195.335 67.4465 195.564 67.7198C195.794 67.993 195.911 68.3741 195.911 68.8628C195.911 69.1071 195.873 69.3965 195.799 69.731L195.158 72.8032H193.707L194.372 69.6538C194.423 69.4352 194.45 69.2438 194.45 69.0799C194.45 68.6843 194.292 68.4866 193.976 68.4866C193.68 68.4866 193.412 68.6667 193.172 69.0267C192.933 69.3869 192.743 69.8981 192.602 70.5605L192.139 72.8032H190.688L191.348 69.6538C191.4 69.4352 191.425 69.2438 191.425 69.0799C191.425 68.6843 191.268 68.4866 190.953 68.4866C190.657 68.4866 190.388 68.6699 190.147 69.0365C189.905 69.4029 189.716 69.9142 189.578 70.5701L189.105 72.8032H187.653L188.796 67.4112H189.905L189.804 68.4094H189.834C190.303 67.6764 190.873 67.3099 191.546 67.3099ZM197.97 66.1475C197.97 65.8678 198.045 65.6572 198.196 65.5157C198.351 65.371 198.568 65.2987 198.848 65.2987C199.082 65.2987 199.26 65.3485 199.383 65.4482C199.505 65.5479 199.566 65.691 199.566 65.8775C199.566 66.1347 199.496 66.3437 199.354 66.5044C199.213 66.662 198.994 66.7407 198.698 66.7407C198.213 66.7407 197.97 66.543 197.97 66.1475ZM198.047 72.8032H196.596L197.738 67.4112H199.19L198.047 72.8032ZM201.828 71.7276C202.037 71.7276 202.298 71.6714 202.61 71.5588V72.644C202.253 72.8143 201.825 72.8996 201.327 72.8996C200.844 72.8996 200.488 72.7983 200.26 72.5957C200.035 72.3932 199.923 72.0797 199.923 71.6552C199.923 71.4945 199.943 71.3144 199.981 71.1151L200.536 68.5156H199.802L199.943 67.8066L200.888 67.4015L201.524 66.2633H202.46L202.223 67.4112H203.588L203.347 68.5156H201.988L201.433 71.1151C201.413 71.2116 201.404 71.2967 201.404 71.3707C201.404 71.6086 201.545 71.7276 201.828 71.7276ZM206.757 68.3564C206.474 68.3564 206.207 68.485 205.957 68.7422C205.706 68.9995 205.542 69.3129 205.464 69.6827H205.682C206.18 69.6827 206.568 69.6055 206.844 69.4512C207.124 69.2937 207.263 69.0814 207.263 68.8146C207.263 68.5092 207.094 68.3564 206.757 68.3564ZM205.966 72.8996C205.291 72.8996 204.766 72.7179 204.394 72.3546C204.021 71.9912 203.834 71.4784 203.834 70.816C203.834 70.1506 203.966 69.5444 204.23 68.9978C204.496 68.4481 204.857 68.03 205.31 67.744C205.764 67.4546 206.276 67.3099 206.848 67.3099C207.418 67.3099 207.861 67.4417 208.18 67.7053C208.499 67.9657 208.657 68.3243 208.657 68.7809C208.657 69.3821 208.389 69.8467 207.852 70.1747C207.314 70.4994 206.549 70.6617 205.551 70.6617H205.305L205.295 70.763V70.8595C205.295 71.152 205.378 71.3835 205.542 71.554C205.709 71.7212 205.947 71.8048 206.255 71.8048C206.536 71.8048 206.789 71.7742 207.017 71.7131C207.245 71.652 207.522 71.5444 207.847 71.3899V72.4847C207.294 72.7613 206.668 72.8996 205.966 72.8996ZM210.866 72.8996C210.394 72.8996 210.02 72.7275 209.747 72.3836C209.477 72.0395 209.342 71.5572 209.342 70.9367C209.342 70.3064 209.456 69.7052 209.684 69.1329C209.916 68.5573 210.22 68.1104 210.596 67.7921C210.973 67.4706 211.387 67.3099 211.841 67.3099C212.104 67.3099 212.331 67.3693 212.521 67.4883C212.714 67.6072 212.895 67.8114 213.065 68.1008H213.103L213.114 67.9657C213.133 67.6121 213.174 67.2986 213.234 67.0253L213.6 65.2987H215.052L213.461 72.8032H212.357L212.423 72.1038H212.404C212.176 72.3836 211.937 72.586 211.686 72.7115C211.439 72.8369 211.165 72.8996 210.866 72.8996ZM211.473 71.7276C211.686 71.7276 211.892 71.6182 212.092 71.3997C212.294 71.1778 212.457 70.8836 212.578 70.5171C212.7 70.1506 212.761 69.7566 212.761 69.3354C212.761 69.0782 212.7 68.8724 212.578 68.7181C212.459 68.5637 212.295 68.4866 212.087 68.4866C211.868 68.4866 211.659 68.6024 211.459 68.8339C211.263 69.0654 211.106 69.3708 210.987 69.7502C210.871 70.1296 210.814 70.5058 210.814 70.8788C210.814 71.4446 211.033 71.7276 211.473 71.7276ZM222.2 67.8934C222.052 68.3628 221.867 68.8435 221.645 69.3354L220.083 72.8032H218.453L218.235 65.7521H219.62L219.649 69.6007C219.649 69.7679 219.642 70.046 219.63 70.4351C219.617 70.8241 219.6 71.1039 219.581 71.2743H219.61C219.681 71.0684 219.789 70.779 219.933 70.4062C220.078 70.03 220.174 69.7953 220.223 69.702L222.002 65.7521H223.305L223.406 69.9625C223.406 70.4319 223.392 70.8692 223.362 71.2743H223.392C223.53 70.8595 223.74 70.2985 224.023 69.591L225.615 65.7521H227.105L223.985 72.8032H222.316L222.21 69.3258L222.2 68.6554C222.2 68.3724 222.206 68.1185 222.219 67.8934H222.2ZM230.067 69.4463C230.067 68.813 229.836 68.4962 229.377 68.4962C229.136 68.4962 228.918 68.5943 228.725 68.7905C228.535 68.9866 228.379 69.2744 228.257 69.6538C228.138 70.0332 228.079 70.4238 228.079 70.8258C228.079 71.4205 228.32 71.718 228.803 71.718C229.044 71.718 229.26 71.6199 229.453 71.4237C229.647 71.2244 229.796 70.9495 229.903 70.599C230.012 70.2453 230.067 69.8612 230.067 69.4463ZM231.528 69.4463C231.528 70.1248 231.414 70.726 231.185 71.2501C230.96 71.7742 230.634 72.181 230.206 72.4704C229.779 72.7564 229.27 72.8996 228.681 72.8996C228.055 72.8996 227.553 72.7115 227.177 72.3353C226.804 71.9559 226.617 71.4527 226.617 70.8258C226.617 70.1409 226.732 69.5316 226.96 68.9978C227.192 68.4609 227.525 68.0462 227.959 67.7536C228.392 67.4578 228.9 67.3099 229.483 67.3099C230.113 67.3099 230.611 67.4995 230.977 67.8789C231.344 68.2583 231.528 68.7809 231.528 69.4463ZM236.022 67.3099C236.212 67.3099 236.367 67.3276 236.486 67.3629L236.167 68.7615C236.022 68.7101 235.862 68.6843 235.684 68.6843C235.312 68.6843 234.984 68.8322 234.701 69.128C234.421 69.4206 234.222 69.8419 234.103 70.3917L233.592 72.8032H232.14L233.283 67.4112H234.392L234.291 68.4094H234.32C234.793 67.6764 235.36 67.3099 236.022 67.3099ZM238.077 72.8996C237.605 72.8996 237.231 72.7275 236.958 72.3836C236.688 72.0395 236.552 71.5572 236.552 70.9367C236.552 70.3064 236.667 69.7052 236.895 69.1329C237.127 68.5573 237.431 68.1104 237.807 67.7921C238.183 67.4706 238.597 67.3099 239.052 67.3099C239.314 67.3099 239.542 67.3693 239.731 67.4883C239.924 67.6072 240.106 67.8114 240.276 68.1008H240.314L240.324 67.9657C240.344 67.6121 240.383 67.2986 240.445 67.0253L240.811 65.2987H242.263L240.671 72.8032H239.568L239.634 72.1038H239.615C239.387 72.3836 239.148 72.586 238.897 72.7115C238.65 72.8369 238.376 72.8996 238.077 72.8996ZM238.684 71.7276C238.897 71.7276 239.103 71.6182 239.301 71.3997C239.505 71.1778 239.666 70.8836 239.789 70.5171C239.911 70.1506 239.972 69.7566 239.972 69.3354C239.972 69.0782 239.911 68.8724 239.789 68.7181C239.67 68.5637 239.506 68.4866 239.297 68.4866C239.079 68.4866 238.87 68.6024 238.67 68.8339C238.474 69.0654 238.317 69.3708 238.198 69.7502C238.081 70.1296 238.024 70.5058 238.024 70.8788C238.024 71.4446 238.244 71.7276 238.684 71.7276ZM245.992 71.0235C245.992 71.628 245.791 72.0925 245.389 72.4172C244.989 72.7388 244.433 72.8996 243.72 72.8996C243.376 72.8996 243.075 72.8754 242.818 72.8272C242.564 72.779 242.326 72.6986 242.104 72.586V71.3899C242.609 71.6793 243.122 71.824 243.642 71.824C243.9 71.824 244.111 71.7727 244.275 71.6697C244.438 71.5637 244.52 71.4205 244.52 71.2405C244.52 71.1022 244.46 70.9784 244.341 70.8692C244.223 70.7598 244.012 70.6215 243.71 70.4543C243.321 70.2357 243.049 70.0187 242.894 69.8033C242.741 69.5846 242.664 69.3274 242.664 69.0316C242.664 68.485 242.84 68.0622 243.194 67.7632C243.551 67.461 244.058 67.3099 244.718 67.3099C245.364 67.3099 245.948 67.4625 246.468 67.768L245.992 68.805C245.541 68.5349 245.126 68.3998 244.747 68.3998C244.564 68.3998 244.416 68.4416 244.303 68.5252C244.19 68.6056 244.135 68.7149 244.135 68.8531C244.135 68.9786 244.186 69.0895 244.289 69.1859C244.391 69.2792 244.585 69.3982 244.867 69.5429C245.263 69.7454 245.549 69.9657 245.727 70.2036C245.903 70.4415 245.992 70.7148 245.992 71.0235Z" fill="#2971FE"/>
<g filter="url(#filter2_d_1229_1662)">
<path d="M129.686 75.9374H50.7212V181.557H129.686V75.9374Z" fill="white"/>
</g>
<g filter="url(#filter3_d_1229_1662)">
<path d="M267.51 85.2604H188.544V190.88H267.51V85.2604Z" fill="white"/>
<path d="M196.419 102.949H260.336" stroke="#E9ECEF" stroke-width="1.69579" stroke-linecap="round"/>
<path d="M196.419 131.769H260.336" stroke="#E9ECEF" stroke-width="1.69579" stroke-linecap="round"/>
<path d="M196.419 160.589H260.336" stroke="#E9ECEF" stroke-width="1.69579" stroke-linecap="round"/>
<path d="M196.419 184.605H260.336" stroke="#E9ECEF" stroke-width="1.69579" stroke-linecap="round"/>
<path d="M196.419 117.359H260.336" stroke="#E9ECEF" stroke-width="1.69579" stroke-linecap="round"/>
<path d="M196.419 146.178H260.336" stroke="#E9ECEF" stroke-width="1.69579" stroke-linecap="round"/>
<path d="M196.419 93.3423H260.336" stroke="#E9ECEF" stroke-width="1.69579" stroke-linecap="round"/>
<path d="M196.419 122.162H260.336" stroke="#E9ECEF" stroke-width="1.69579" stroke-linecap="round"/>
<path d="M196.419 150.982H260.336" stroke="#E9ECEF" stroke-width="1.69579" stroke-linecap="round"/>
<path d="M196.419 174.999H260.336" stroke="#E9ECEF" stroke-width="1.69579" stroke-linecap="round"/>
<path d="M196.419 107.752H260.336" stroke="#E9ECEF" stroke-width="1.69579" stroke-linecap="round"/>
<path d="M196.419 136.572H260.336" stroke="#E9ECEF" stroke-width="1.69579" stroke-linecap="round"/>
<path d="M196.419 165.392H260.336" stroke="#E9ECEF" stroke-width="1.69579" stroke-linecap="round"/>
<path d="M196.419 98.1458H260.336" stroke="#E9ECEF" stroke-width="1.69579" stroke-linecap="round"/>
<path d="M196.419 126.965H260.336" stroke="#E9ECEF" stroke-width="1.69579" stroke-linecap="round"/>
<path d="M196.419 155.785H260.336" stroke="#E9ECEF" stroke-width="1.69579" stroke-linecap="round"/>
<path d="M196.419 179.801H260.336" stroke="#E9ECEF" stroke-width="1.69579" stroke-linecap="round"/>
<path d="M196.419 112.556H260.336" stroke="#E9ECEF" stroke-width="1.69579" stroke-linecap="round"/>
<path d="M196.419 141.375H260.336" stroke="#E9ECEF" stroke-width="1.69579" stroke-linecap="round"/>
<path d="M196.419 170.196H260.336" stroke="#E9ECEF" stroke-width="1.69579" stroke-linecap="round"/>
</g>
<g filter="url(#filter4_d_1229_1662)">
<path d="M248.392 75.9375H169.427V181.557H248.392V75.9375Z" fill="white"/>
<path d="M177.303 93.6259H241.218" stroke="#E9ECEF" stroke-width="1.69579" stroke-linecap="round"/>
<path d="M177.303 122.446H241.218" stroke="#E9ECEF" stroke-width="1.69579" stroke-linecap="round"/>
<path d="M177.303 151.266H241.218" stroke="#E9ECEF" stroke-width="1.69579" stroke-linecap="round"/>
<path d="M177.303 175.282H241.218" stroke="#E9ECEF" stroke-width="1.69579" stroke-linecap="round"/>
<path d="M177.303 108.036H241.218" stroke="#E9ECEF" stroke-width="1.69579" stroke-linecap="round"/>
<path d="M177.303 136.856H241.218" stroke="#E9ECEF" stroke-width="1.69579" stroke-linecap="round"/>
<path d="M177.303 84.0193H241.218" stroke="#E9ECEF" stroke-width="1.69579" stroke-linecap="round"/>
<path d="M177.303 112.839H241.218" stroke="#E9ECEF" stroke-width="1.69579" stroke-linecap="round"/>
<path d="M177.303 141.659H241.218" stroke="#E9ECEF" stroke-width="1.69579" stroke-linecap="round"/>
<path d="M177.303 165.676H241.218" stroke="#E9ECEF" stroke-width="1.69579" stroke-linecap="round"/>
<path d="M177.303 98.4297H241.218" stroke="#E9ECEF" stroke-width="1.69579" stroke-linecap="round"/>
<path d="M177.303 127.249H241.218" stroke="#E9ECEF" stroke-width="1.69579" stroke-linecap="round"/>
<path d="M177.303 156.069H241.218" stroke="#E9ECEF" stroke-width="1.69579" stroke-linecap="round"/>
<path d="M177.303 88.8228H241.218" stroke="#E9ECEF" stroke-width="1.69579" stroke-linecap="round"/>
<path d="M177.303 117.643H241.218" stroke="#E9ECEF" stroke-width="1.69579" stroke-linecap="round"/>
<path d="M177.303 146.463H241.218" stroke="#E9ECEF" stroke-width="1.69579" stroke-linecap="round"/>
<path d="M177.303 170.479H241.218" stroke="#E9ECEF" stroke-width="1.69579" stroke-linecap="round"/>
<path d="M177.303 103.233H241.218" stroke="#E9ECEF" stroke-width="1.69579" stroke-linecap="round"/>
<path d="M177.303 132.052H241.218" stroke="#E9ECEF" stroke-width="1.69579" stroke-linecap="round"/>
<path d="M177.303 160.873H241.218" stroke="#E9ECEF" stroke-width="1.69579" stroke-linecap="round"/>
</g>
<path d="M58.4341 93.1232H122.35" stroke="#E9ECEF" stroke-width="1.69579" stroke-linecap="round"/>
<path d="M58.4341 83.9625H122.35" stroke="#E9ECEF" stroke-width="1.69579" stroke-linecap="round"/>
<path d="M58.2363 93.4754H122.152" stroke="#E9ECEF" stroke-width="1.69579" stroke-linecap="round"/>
<path d="M58.2363 84.3149H122.152" stroke="#E9ECEF" stroke-width="1.69579" stroke-linecap="round"/>
<path d="M58.2363 98.0558H122" stroke="#E9ECEF" stroke-width="1.69579" stroke-linecap="round"/>
<path d="M58.2363 88.8951H122.152" stroke="#E9ECEF" stroke-width="1.69579" stroke-linecap="round"/>
<path d="M58.2363 102.636H122" stroke="#E9ECEF" stroke-width="1.69579" stroke-linecap="round"/>
<path d="M58.2363 116.377H122.152" stroke="#E9ECEF" stroke-width="1.69579" stroke-linecap="round"/>
<path d="M58.2363 107.216H122.152" stroke="#E9ECEF" stroke-width="1.69579" stroke-linecap="round"/>
<path d="M58.2363 120.957H109.586" stroke="#E9ECEF" stroke-width="1.69579" stroke-linecap="round"/>
<path d="M58.2363 111.796H122.152" stroke="#E9ECEF" stroke-width="1.69579" stroke-linecap="round"/>
<path d="M58.2363 125.537H83.911" stroke="#E9ECEF" stroke-width="1.69579" stroke-linecap="round"/>
<path d="M168.811 55.5173V39.5256H231.996L226.049 47.7376L232.367 55.5173H168.811Z" fill="#DC9E00"/>
<path d="M178.339 47.6557H178.736C179.107 47.6557 179.386 47.583 179.57 47.4375C179.754 47.2896 179.847 47.0754 179.847 46.7949C179.847 46.5119 179.768 46.3028 179.613 46.1678C179.459 46.0328 179.218 45.9652 178.889 45.9652H178.339V47.6557ZM181.066 46.7521C181.066 47.3649 180.873 47.8336 180.489 48.1582C180.107 48.4828 179.564 48.6451 178.858 48.6451H178.339V50.6705H177.131V44.9759H178.95C179.641 44.9759 180.166 45.1252 180.525 45.4239C180.885 45.7198 181.066 46.1626 181.066 46.7521ZM184.146 47.5038H184.535C184.917 47.5038 185.199 47.4402 185.38 47.3129C185.562 47.1857 185.653 46.9857 185.653 46.7131C185.653 46.4431 185.56 46.2509 185.373 46.1367C185.189 46.0224 184.901 45.9652 184.512 45.9652H184.146V47.5038ZM184.146 48.4854V50.6705H182.938V44.9759H184.598C185.372 44.9759 185.944 45.1175 186.315 45.4005C186.687 45.681 186.873 46.108 186.873 46.682C186.873 47.0169 186.78 47.3156 186.596 47.5778C186.411 47.8375 186.151 48.0413 185.813 48.1893C186.669 49.4695 187.228 50.2966 187.487 50.6705H186.149L184.788 48.4854H184.146ZM192.282 50.6705H189.002V44.9759H192.282V45.9652H190.21V47.2156H192.137V48.2049H190.21V49.6734H192.282V50.6705ZM196.683 50.6705L195.312 46.2029H195.276C195.326 47.1118 195.35 47.718 195.35 48.0218V50.6705H194.272V44.9759H195.915L197.263 49.3306H197.287L198.716 44.9759H200.359V50.6705H199.233V47.9751C199.233 47.8479 199.236 47.7011 199.238 47.5349C199.243 47.3688 199.261 46.9274 199.293 46.2106H199.257L197.789 50.6705H196.683ZM202.594 50.6705V44.9759H203.802V50.6705H202.594ZM210.668 44.9759V48.6606C210.668 49.0813 210.574 49.45 210.383 49.7669C210.197 50.0836 209.926 50.3264 209.57 50.4952C209.213 50.6639 208.794 50.7484 208.307 50.7484C207.575 50.7484 207.007 50.5615 206.601 50.1875C206.197 49.811 205.994 49.2969 205.994 48.6451V44.9759H207.198V48.462C207.198 48.9008 207.286 49.2228 207.462 49.428C207.639 49.6331 207.932 49.7357 208.338 49.7357C208.733 49.7357 209.02 49.6331 209.196 49.428C209.375 49.2202 209.464 48.8956 209.464 48.4542V44.9759H210.668ZM215.271 50.6705L213.9 46.2029H213.865C213.915 47.1118 213.94 47.718 213.94 48.0218V50.6705H212.86V44.9759H214.504L215.851 49.3306H215.875L217.304 44.9759H218.949V50.6705H217.823V47.9751C217.823 47.8479 217.824 47.7011 217.826 47.5349C217.831 47.3688 217.85 46.9274 217.881 46.2106H217.845L216.377 50.6705H215.271Z" fill="white"/>
<path d="M170.163 133.178C170.628 132.714 170.628 131.962 170.163 131.497L162.596 123.93C162.132 123.466 161.379 123.466 160.915 123.93C160.45 124.395 160.45 125.148 160.915 125.612L167.641 132.337L160.915 139.064C160.45 139.528 160.45 140.281 160.915 140.745C161.379 141.21 162.132 141.21 162.596 140.745L170.163 133.178ZM130.764 133.526H169.322V131.149H130.764V133.526Z" fill="#2971FE"/>
</g>
<defs>
<filter id="filter0_d_1229_1662" x="-3" y="14" width="343.14" height="223.999" filterUnits="userSpaceOnUse" color-interpolation-filters="sRGB">
<feFlood flood-opacity="0" result="BackgroundImageFix"/>
<feColorMatrix in="SourceAlpha" type="matrix" values="0 0 0 0 0 0 0 0 0 0 0 0 0 0 0 0 0 0 127 0" result="hardAlpha"/>
<feOffset dy="4"/>
<feGaussianBlur stdDeviation="11"/>
<feColorMatrix type="matrix" values="0 0 0 0 0 0 0 0 0 0 0 0 0 0 0 0 0 0 0.1 0"/>
<feBlend mode="normal" in2="BackgroundImageFix" result="effect1_dropShadow_1229_1662"/>
<feBlend mode="normal" in="SourceGraphic" in2="effect1_dropShadow_1229_1662" result="shape"/>
</filter>
<filter id="filter1_d_1229_1662" x="202.208" y="91.0331" width="89.988" height="116.642" filterUnits="userSpaceOnUse" color-interpolation-filters="sRGB">
<feFlood flood-opacity="0" result="BackgroundImageFix"/>
<feColorMatrix in="SourceAlpha" type="matrix" values="0 0 0 0 0 0 0 0 0 0 0 0 0 0 0 0 0 0 127 0" result="hardAlpha"/>
<feOffset dy="1.69579"/>
<feGaussianBlur stdDeviation="2.75566"/>
<feColorMatrix type="matrix" values="0 0 0 0 0 0 0 0 0 0 0 0 0 0 0 0 0 0 0.25 0"/>
<feBlend mode="normal" in2="BackgroundImageFix" result="effect1_dropShadow_1229_1662"/>
<feBlend mode="normal" in="SourceGraphic" in2="effect1_dropShadow_1229_1662" result="shape"/>
</filter>
<filter id="filter2_d_1229_1662" x="45.2099" y="72.1219" width="89.988" height="116.642" filterUnits="userSpaceOnUse" color-interpolation-filters="sRGB">
<feFlood flood-opacity="0" result="BackgroundImageFix"/>
<feColorMatrix in="SourceAlpha" type="matrix" values="0 0 0 0 0 0 0 0 0 0 0 0 0 0 0 0 0 0 127 0" result="hardAlpha"/>
<feOffset dy="1.69579"/>
<feGaussianBlur stdDeviation="2.75566"/>
<feColorMatrix type="matrix" values="0 0 0 0 0 0 0 0 0 0 0 0 0 0 0 0 0 0 0.25 0"/>
<feBlend mode="normal" in2="BackgroundImageFix" result="effect1_dropShadow_1229_1662"/>
<feBlend mode="normal" in="SourceGraphic" in2="effect1_dropShadow_1229_1662" result="shape"/>
</filter>
<filter id="filter3_d_1229_1662" x="183.033" y="81.4448" width="89.988" height="116.642" filterUnits="userSpaceOnUse" color-interpolation-filters="sRGB">
<feFlood flood-opacity="0" result="BackgroundImageFix"/>
<feColorMatrix in="SourceAlpha" type="matrix" values="0 0 0 0 0 0 0 0 0 0 0 0 0 0 0 0 0 0 127 0" result="hardAlpha"/>
<feOffset dy="1.69579"/>
<feGaussianBlur stdDeviation="2.75566"/>
<feColorMatrix type="matrix" values="0 0 0 0 0 0 0 0 0 0 0 0 0 0 0 0 0 0 0.25 0"/>
<feBlend mode="normal" in2="BackgroundImageFix" result="effect1_dropShadow_1229_1662"/>
<feBlend mode="normal" in="SourceGraphic" in2="effect1_dropShadow_1229_1662" result="shape"/>
</filter>
<filter id="filter4_d_1229_1662" x="163.915" y="72.122" width="89.988" height="116.642" filterUnits="userSpaceOnUse" color-interpolation-filters="sRGB">
<feFlood flood-opacity="0" result="BackgroundImageFix"/>
<feColorMatrix in="SourceAlpha" type="matrix" values="0 0 0 0 0 0 0 0 0 0 0 0 0 0 0 0 0 0 127 0" result="hardAlpha"/>
<feOffset dy="1.69579"/>
<feGaussianBlur stdDeviation="2.75566"/>
<feColorMatrix type="matrix" values="0 0 0 0 0 0 0 0 0 0 0 0 0 0 0 0 0 0 0.25 0"/>
<feBlend mode="normal" in2="BackgroundImageFix" result="effect1_dropShadow_1229_1662"/>
<feBlend mode="normal" in="SourceGraphic" in2="effect1_dropShadow_1229_1662" result="shape"/>
</filter>
<clipPath id="clip0_1229_1662">
<rect width="338" height="243" fill="white"/>
</clipPath>
</defs>
</svg>
